<svg aria-hidden="true" style="position: absolute; width: 0; height: 0; overflow: hidden;" version="1.1" xmlns="http://www.w3.org/2000/svg" xmlns:xlink="http://www.w3.org/1999/xlink">
<defs>
<symbol id="icon-instagram" viewBox="0 0 32 32">
<path d="M16 0c-3.54 0-3.982 0.017-5.367 0.076-1.391 0.068-2.332 0.284-3.163 0.606-0.856 0.335-1.586 0.781-2.306 1.505-0.725 0.72-1.175 1.45-1.505 2.306-0.322 0.83-0.538 1.771-0.606 3.163-0.063 1.386-0.076 1.827-0.076 5.367s0.017 3.982 0.076 5.367c0.068 1.387 0.284 2.332 0.606 3.163 0.335 0.856 0.781 1.586 1.505 2.306 0.72 0.725 1.45 1.175 2.306 1.505 0.83 0.318 1.775 0.538 3.163 0.607 1.386 0.063 1.827 0.076 5.367 0.076s3.982-0.017 5.367-0.076c1.387-0.068 2.332-0.289 3.163-0.607 0.856-0.335 1.586-0.781 2.306-1.505 0.725-0.72 1.175-1.446 1.505-2.306 0.318-0.83 0.538-1.775 0.607-3.163 0.063-1.386 0.076-1.827 0.076-5.367s-0.017-3.982-0.076-5.367c-0.068-1.387-0.289-2.337-0.607-3.163-0.335-0.856-0.781-1.586-1.505-2.306-0.72-0.725-1.446-1.175-2.306-1.505-0.83-0.322-1.775-0.538-3.163-0.606-1.386-0.063-1.827-0.076-5.367-0.076zM16 2.344c3.477 0 3.892 0.017 5.266 0.076 1.268 0.059 1.958 0.271 2.416 0.45 0.611 0.237 1.039 0.517 1.501 0.974 0.453 0.453 0.733 0.886 0.97 1.497 0.179 0.458 0.391 1.149 0.45 2.416 0.059 1.374 0.076 1.79 0.076 5.266s-0.017 3.892-0.081 5.266c-0.068 1.268-0.28 1.958-0.458 2.416-0.247 0.611-0.522 1.039-0.976 1.501-0.458 0.453-0.895 0.733-1.501 0.97-0.453 0.179-1.153 0.391-2.425 0.45-1.381 0.059-1.788 0.076-5.274 0.076s-3.892-0.017-5.275-0.081c-1.268-0.068-1.967-0.28-2.425-0.458-0.619-0.247-1.043-0.522-1.497-0.976-0.458-0.458-0.75-0.895-0.974-1.501-0.182-0.453-0.391-1.153-0.458-2.425-0.046-1.365-0.068-1.788-0.068-5.258 0-3.468 0.022-3.892 0.068-5.274 0.068-1.272 0.276-1.971 0.458-2.425 0.225-0.62 0.517-1.043 0.974-1.501 0.453-0.453 0.878-0.747 1.497-0.976 0.458-0.178 1.14-0.39 2.413-0.453 1.381-0.050 1.788-0.068 5.269-0.068l0.054 0.037zM16 6.339c-3.697 0-6.686 2.993-6.686 6.686 0 3.697 2.993 6.686 6.686 6.686 3.697 0 6.686-2.993 6.686-6.686 0-3.697-2.993-6.686-6.686-6.686zM16 17.366c-2.4 0-4.341-1.941-4.341-4.341s1.941-4.341 4.341-4.341c2.4 0 4.341 1.941 4.341 4.341s-1.942 4.341-4.341 4.341zM24.518 6.072c0 0.865-0.704 1.564-1.565 1.564-0.865 0-1.564-0.699-1.564-1.564 0-0.86 0.703-1.561 1.564-1.561s1.565 0.7 1.565 1.561z"></path>
</symbol>
<symbol id="icon-telegram" viewBox="0 0 36 32">
<path d="M33.401 2.371l-4.605 22.104c-0.348 1.56-1.253 1.948-2.54 1.214l-7.016-5.263-3.385 3.315c-0.375 0.382-0.688 0.7-1.41 0.7l0.505-7.273 13.003-11.96c0.566-0.513-0.123-0.798-0.878-0.284l-16.075 10.304-6.92-2.205c-1.505-0.478-1.532-1.532 0.314-2.267l27.068-10.615c1.253-0.478 2.35 0.283 1.941 2.232z"></path>
</symbol>
<symbol id="icon-olx" viewBox="0 0 51 32">
<path d="M44.217 6.512h3.473v3.907l-2.605 2.605 2.605 2.605v3.907h-3.473l-2.605-2.605-2.605 2.605h-3.473v-4.341l2.605-2.171-2.605-2.605v-3.907h3.473l2.605 2.605 2.605-2.605z"></path>
<path d="M26.419 0h6.078v26.047h-6.078v-26.047z"></path>
<path d="M13.395 23.442c-5.754 0-10.419-4.665-10.419-10.419s4.665-10.419 10.419-10.419c5.754 0 10.419 4.665 10.419 10.419s-4.665 10.419-10.419 10.419zM13.395 16.496c1.918 0 3.473-1.555 3.473-3.473s-1.555-3.473-3.473-3.473c-1.918 0-3.473 1.555-3.473 3.473s1.555 3.473 3.473 3.473z"></path>
</symbol>
<symbol id="icon-mulko" viewBox="0 0 120 32">
<path d="M38.633 14.044h2.116v13.745h8.007v2.029h-10.124v-15.775zM54.343 20.393l-0.065 0.785 0.284-0.393 6.458-6.742h2.727l-6.524 6.764 6.895 9.011h-2.684l-5.76-7.658-1.331 1.287v6.371h-2.138v-15.775h2.138v6.349zM65.392 21.942c0-1.091 0.204-2.116 0.611-3.076 0.422-0.975 1.004-1.833 1.745-2.575 0.742-0.756 1.593-1.345 2.553-1.767 0.975-0.436 2.022-0.655 3.142-0.655 1.105 0 2.138 0.218 3.098 0.655 0.975 0.422 1.833 1.011 2.575 1.767 0.756 0.742 1.345 1.6 1.767 2.575 0.422 0.96 0.633 1.985 0.633 3.076 0 1.12-0.211 2.167-0.633 3.142s-1.011 1.833-1.767 2.575c-0.742 0.727-1.6 1.302-2.575 1.724-0.96 0.407-1.993 0.611-3.098 0.611-1.12 0-2.168-0.204-3.142-0.611-0.96-0.407-1.811-0.975-2.553-1.702s-1.324-1.578-1.745-2.553c-0.407-0.975-0.611-2.036-0.611-3.185zM67.574 21.964c0 0.829 0.153 1.607 0.458 2.335 0.305 0.713 0.727 1.345 1.265 1.898s1.164 0.989 1.876 1.309c0.713 0.305 1.484 0.458 2.313 0.458 0.815 0 1.578-0.153 2.291-0.458 0.713-0.32 1.331-0.756 1.855-1.309s0.938-1.185 1.244-1.898c0.305-0.727 0.458-1.513 0.458-2.356 0-0.829-0.153-1.607-0.458-2.335-0.305-0.742-0.727-1.389-1.265-1.942s-1.164-0.982-1.876-1.287c-0.713-0.32-1.476-0.48-2.291-0.48-0.829 0-1.6 0.16-2.313 0.48s-1.338 0.756-1.876 1.309c-0.538 0.553-0.953 1.2-1.244 1.942-0.291 0.727-0.436 1.505-0.436 2.335zM83.554 28.662c0-0.32 0.116-0.589 0.349-0.807 0.247-0.233 0.516-0.349 0.807-0.349 0.262 0 0.509 0.116 0.742 0.349 0.247 0.218 0.371 0.487 0.371 0.807 0 0.349-0.124 0.633-0.371 0.851-0.233 0.204-0.48 0.305-0.742 0.305-0.291 0-0.56-0.102-0.807-0.305-0.233-0.218-0.349-0.502-0.349-0.851zM87.764 21.942c0-1.091 0.204-2.116 0.611-3.076 0.422-0.975 1.004-1.833 1.745-2.575 0.742-0.756 1.593-1.345 2.553-1.767 0.975-0.436 2.022-0.655 3.142-0.655 1.105 0 2.138 0.218 3.098 0.655 0.975 0.422 1.833 1.011 2.575 1.767 0.756 0.742 1.345 1.6 1.767 2.575 0.422 0.96 0.633 1.985 0.633 3.076 0 1.12-0.211 2.167-0.633 3.142s-1.011 1.833-1.767 2.575c-0.742 0.727-1.6 1.302-2.575 1.724-0.96 0.407-1.993 0.611-3.098 0.611-1.12 0-2.167-0.204-3.142-0.611-0.96-0.407-1.811-0.975-2.553-1.702s-1.324-1.578-1.745-2.553c-0.407-0.975-0.611-2.036-0.611-3.185zM89.946 21.964c0 0.829 0.153 1.607 0.458 2.335 0.305 0.713 0.727 1.345 1.265 1.898s1.164 0.989 1.876 1.309c0.713 0.305 1.484 0.458 2.313 0.458 0.815 0 1.578-0.153 2.291-0.458 0.713-0.32 1.331-0.756 1.855-1.309s0.938-1.185 1.244-1.898c0.305-0.727 0.458-1.513 0.458-2.356 0-0.829-0.153-1.607-0.458-2.335-0.305-0.742-0.727-1.389-1.265-1.942s-1.164-0.982-1.876-1.287c-0.713-0.32-1.476-0.48-2.291-0.48-0.829 0-1.6 0.16-2.313 0.48s-1.338 0.756-1.876 1.309c-0.538 0.553-0.953 1.2-1.244 1.942-0.291 0.727-0.436 1.505-0.436 2.335zM109.592 20.393l-0.065 0.785 0.284-0.393 6.458-6.742h2.727l-6.524 6.764 6.895 9.011h-2.684l-5.76-7.658-1.331 1.287v6.371h-2.138v-15.775h2.138v6.349z"></path>
<path d="M24.375 19.020c-0.202 0.684-0.222 1.345-0.062 1.983 0.179 0.629 0.495 1.177 0.948 1.644s1.022 0.802 1.706 1.003c0.712 0.21 1.392 0.243 2.040 0.101s1.211-0.431 1.689-0.867c0.481-0.45 0.823-1.016 1.024-1.7l2.881-9.773 1.988 0.586-2.899 9.836c-0.325 1.102-0.867 1.989-1.626 2.66-0.745 0.675-1.616 1.108-2.612 1.3-0.983 0.196-2.004 0.137-3.064-0.175s-1.95-0.817-2.67-1.515c-0.72-0.697-1.209-1.532-1.469-2.503s-0.227-2.008 0.098-3.11l2.899-9.836 2.009 0.592-2.881 9.773z"></path>
<path d="M2.269 19.636v-16.276h0.022l8.269 11.738-0.895-0.175 8.247-11.564h0.044v16.276h-2.095v-11.476l0.131 1.069-5.956 8.422h-0.044l-6.044-8.422 0.371-0.982v11.389h-2.051z"></path>
</symbol>
</defs>
</svg>
